G04 #@! TF.GenerationSoftware,KiCad,Pcbnew,6.0.4-6f826c9f35~116~ubuntu20.04.1*
G04 #@! TF.CreationDate,2022-03-23T14:40:53-04:00*
G04 #@! TF.ProjectId,ESP32 Sensing,45535033-3220-4536-956e-73696e672e6b,rev?*
G04 #@! TF.SameCoordinates,Original*
G04 #@! TF.FileFunction,Legend,Bot*
G04 #@! TF.FilePolarity,Positive*
%FSLAX46Y46*%
G04 Gerber Fmt 4.6, Leading zero omitted, Abs format (unit mm)*
G04 Created by KiCad (PCBNEW 6.0.4-6f826c9f35~116~ubuntu20.04.1) date 2022-03-23 14:40:53*
%MOMM*%
%LPD*%
G01*
G04 APERTURE LIST*
%ADD10C,0.150000*%
%ADD11C,0.120000*%
%ADD12C,0.010000*%
G04 APERTURE END LIST*
D10*
X145599696Y-97109194D02*
X145552076Y-97013956D01*
X145552076Y-96871098D01*
X145599696Y-96728241D01*
X145694934Y-96633003D01*
X145790172Y-96585384D01*
X145980648Y-96537765D01*
X146123505Y-96537765D01*
X146313981Y-96585384D01*
X146409219Y-96633003D01*
X146504457Y-96728241D01*
X146552076Y-96871098D01*
X146552076Y-96966337D01*
X146504457Y-97109194D01*
X146456838Y-97156813D01*
X146123505Y-97156813D01*
X146123505Y-96966337D01*
X145885410Y-98013956D02*
X146552076Y-98013956D01*
X145885410Y-97585384D02*
X146409219Y-97585384D01*
X146504457Y-97633003D01*
X146552076Y-97728241D01*
X146552076Y-97871098D01*
X146504457Y-97966337D01*
X146456838Y-98013956D01*
X145885410Y-98394908D02*
X146552076Y-98633003D01*
X145885410Y-98871098D02*
X146552076Y-98633003D01*
X146790172Y-98537765D01*
X146837791Y-98490146D01*
X146885410Y-98394908D01*
X145552076Y-99871098D02*
X145552076Y-100442527D01*
X146552076Y-100156813D02*
X145552076Y-100156813D01*
X145885410Y-101204432D02*
X146552076Y-101204432D01*
X145885410Y-100775860D02*
X146409219Y-100775860D01*
X146504457Y-100823479D01*
X146552076Y-100918717D01*
X146552076Y-101061575D01*
X146504457Y-101156813D01*
X146456838Y-101204432D01*
X146552076Y-101680622D02*
X145885410Y-101680622D01*
X146075886Y-101680622D02*
X145980648Y-101728241D01*
X145933029Y-101775860D01*
X145885410Y-101871098D01*
X145885410Y-101966337D01*
X146504457Y-102728241D02*
X146552076Y-102633003D01*
X146552076Y-102442527D01*
X146504457Y-102347289D01*
X146456838Y-102299670D01*
X146361600Y-102252051D01*
X146075886Y-102252051D01*
X145980648Y-102299670D01*
X145933029Y-102347289D01*
X145885410Y-102442527D01*
X145885410Y-102633003D01*
X145933029Y-102728241D01*
X146552076Y-103299670D02*
X146504457Y-103204432D01*
X146456838Y-103156813D01*
X146361600Y-103109194D01*
X146075886Y-103109194D01*
X145980648Y-103156813D01*
X145933029Y-103204432D01*
X145885410Y-103299670D01*
X145885410Y-103442527D01*
X145933029Y-103537765D01*
X145980648Y-103585384D01*
X146075886Y-103633003D01*
X146361600Y-103633003D01*
X146456838Y-103585384D01*
X146504457Y-103537765D01*
X146552076Y-103442527D01*
X146552076Y-103299670D01*
X145885410Y-103918717D02*
X145885410Y-104299670D01*
X145552076Y-104061575D02*
X146409219Y-104061575D01*
X146504457Y-104109194D01*
X146552076Y-104204432D01*
X146552076Y-104299670D01*
X145885410Y-104490146D02*
X145885410Y-104871098D01*
X145552076Y-104633003D02*
X146409219Y-104633003D01*
X146504457Y-104680622D01*
X146552076Y-104775860D01*
X146552076Y-104871098D01*
X146504457Y-105585384D02*
X146552076Y-105490146D01*
X146552076Y-105299670D01*
X146504457Y-105204432D01*
X146409219Y-105156813D01*
X146028267Y-105156813D01*
X145933029Y-105204432D01*
X145885410Y-105299670D01*
X145885410Y-105490146D01*
X145933029Y-105585384D01*
X146028267Y-105633003D01*
X146123505Y-105633003D01*
X146218743Y-105156813D01*
X146171124Y-106823479D02*
X146171124Y-107585384D01*
X146552076Y-108823479D02*
X145552076Y-108823479D01*
X146266362Y-109156813D01*
X145552076Y-109490146D01*
X146552076Y-109490146D01*
X146552076Y-110394908D02*
X146028267Y-110394908D01*
X145933029Y-110347289D01*
X145885410Y-110252051D01*
X145885410Y-110061575D01*
X145933029Y-109966337D01*
X146504457Y-110394908D02*
X146552076Y-110299670D01*
X146552076Y-110061575D01*
X146504457Y-109966337D01*
X146409219Y-109918717D01*
X146313981Y-109918717D01*
X146218743Y-109966337D01*
X146171124Y-110061575D01*
X146171124Y-110299670D01*
X146123505Y-110394908D01*
X146552076Y-110871098D02*
X145885410Y-110871098D01*
X146075886Y-110871098D02*
X145980648Y-110918717D01*
X145933029Y-110966337D01*
X145885410Y-111061575D01*
X145885410Y-111156813D01*
X146504457Y-111918717D02*
X146552076Y-111823479D01*
X146552076Y-111633003D01*
X146504457Y-111537765D01*
X146456838Y-111490146D01*
X146361600Y-111442527D01*
X146075886Y-111442527D01*
X145980648Y-111490146D01*
X145933029Y-111537765D01*
X145885410Y-111633003D01*
X145885410Y-111823479D01*
X145933029Y-111918717D01*
X146552076Y-112347289D02*
X145552076Y-112347289D01*
X146552076Y-112775860D02*
X146028267Y-112775860D01*
X145933029Y-112728241D01*
X145885410Y-112633003D01*
X145885410Y-112490146D01*
X145933029Y-112394908D01*
X145980648Y-112347289D01*
X145647315Y-113966337D02*
X145599696Y-114013956D01*
X145552076Y-114109194D01*
X145552076Y-114347289D01*
X145599696Y-114442527D01*
X145647315Y-114490146D01*
X145742553Y-114537765D01*
X145837791Y-114537765D01*
X145980648Y-114490146D01*
X146552076Y-113918717D01*
X146552076Y-114537765D01*
X145552076Y-115156813D02*
X145552076Y-115252051D01*
X145599696Y-115347289D01*
X145647315Y-115394908D01*
X145742553Y-115442527D01*
X145933029Y-115490146D01*
X146171124Y-115490146D01*
X146361600Y-115442527D01*
X146456838Y-115394908D01*
X146504457Y-115347289D01*
X146552076Y-115252051D01*
X146552076Y-115156813D01*
X146504457Y-115061575D01*
X146456838Y-115013956D01*
X146361600Y-114966337D01*
X146171124Y-114918717D01*
X145933029Y-114918717D01*
X145742553Y-114966337D01*
X145647315Y-115013956D01*
X145599696Y-115061575D01*
X145552076Y-115156813D01*
X145647315Y-115871098D02*
X145599696Y-115918717D01*
X145552076Y-116013956D01*
X145552076Y-116252051D01*
X145599696Y-116347289D01*
X145647315Y-116394908D01*
X145742553Y-116442527D01*
X145837791Y-116442527D01*
X145980648Y-116394908D01*
X146552076Y-115823479D01*
X146552076Y-116442527D01*
X145647315Y-116823479D02*
X145599696Y-116871098D01*
X145552076Y-116966337D01*
X145552076Y-117204432D01*
X145599696Y-117299670D01*
X145647315Y-117347289D01*
X145742553Y-117394908D01*
X145837791Y-117394908D01*
X145980648Y-117347289D01*
X146552076Y-116775860D01*
X146552076Y-117394908D01*
X118650679Y-119576931D02*
X118650679Y-119843598D01*
X119069726Y-119957883D02*
X119069726Y-119576931D01*
X118269726Y-119576931D01*
X118269726Y-119957883D01*
X119031631Y-120262645D02*
X119069726Y-120376931D01*
X119069726Y-120567407D01*
X119031631Y-120643598D01*
X118993536Y-120681693D01*
X118917345Y-120719788D01*
X118841155Y-120719788D01*
X118764964Y-120681693D01*
X118726869Y-120643598D01*
X118688774Y-120567407D01*
X118650679Y-120415026D01*
X118612583Y-120338836D01*
X118574488Y-120300740D01*
X118498298Y-120262645D01*
X118422107Y-120262645D01*
X118345917Y-120300740D01*
X118307822Y-120338836D01*
X118269726Y-120415026D01*
X118269726Y-120605502D01*
X118307822Y-120719788D01*
X119069726Y-121062645D02*
X118269726Y-121062645D01*
X118269726Y-121367407D01*
X118307822Y-121443598D01*
X118345917Y-121481693D01*
X118422107Y-121519788D01*
X118536393Y-121519788D01*
X118612583Y-121481693D01*
X118650679Y-121443598D01*
X118688774Y-121367407D01*
X118688774Y-121062645D01*
X118269726Y-121786455D02*
X118269726Y-122281693D01*
X118574488Y-122015026D01*
X118574488Y-122129312D01*
X118612583Y-122205502D01*
X118650679Y-122243598D01*
X118726869Y-122281693D01*
X118917345Y-122281693D01*
X118993536Y-122243598D01*
X119031631Y-122205502D01*
X119069726Y-122129312D01*
X119069726Y-121900740D01*
X119031631Y-121824550D01*
X118993536Y-121786455D01*
X118345917Y-122586455D02*
X118307822Y-122624550D01*
X118269726Y-122700740D01*
X118269726Y-122891217D01*
X118307822Y-122967407D01*
X118345917Y-123005502D01*
X118422107Y-123043598D01*
X118498298Y-123043598D01*
X118612583Y-123005502D01*
X119069726Y-122548359D01*
X119069726Y-123043598D01*
X120319631Y-115043598D02*
X120357726Y-115157883D01*
X120357726Y-115348359D01*
X120319631Y-115424550D01*
X120281536Y-115462645D01*
X120205345Y-115500740D01*
X120129155Y-115500740D01*
X120052964Y-115462645D01*
X120014869Y-115424550D01*
X119976774Y-115348359D01*
X119938679Y-115195979D01*
X119900583Y-115119788D01*
X119862488Y-115081693D01*
X119786298Y-115043598D01*
X119710107Y-115043598D01*
X119633917Y-115081693D01*
X119595822Y-115119788D01*
X119557726Y-115195979D01*
X119557726Y-115386455D01*
X119595822Y-115500740D01*
X119938679Y-115843598D02*
X119938679Y-116110264D01*
X120357726Y-116224550D02*
X120357726Y-115843598D01*
X119557726Y-115843598D01*
X119557726Y-116224550D01*
X120357726Y-116567407D02*
X119557726Y-116567407D01*
X120357726Y-117024550D01*
X119557726Y-117024550D01*
X120319631Y-117367407D02*
X120357726Y-117481693D01*
X120357726Y-117672169D01*
X120319631Y-117748359D01*
X120281536Y-117786455D01*
X120205345Y-117824550D01*
X120129155Y-117824550D01*
X120052964Y-117786455D01*
X120014869Y-117748359D01*
X119976774Y-117672169D01*
X119938679Y-117519788D01*
X119900583Y-117443598D01*
X119862488Y-117405502D01*
X119786298Y-117367407D01*
X119710107Y-117367407D01*
X119633917Y-117405502D01*
X119595822Y-117443598D01*
X119557726Y-117519788D01*
X119557726Y-117710264D01*
X119595822Y-117824550D01*
X120357726Y-118167407D02*
X119557726Y-118167407D01*
X120357726Y-118548359D02*
X119557726Y-118548359D01*
X120357726Y-119005502D01*
X119557726Y-119005502D01*
X119595822Y-119805502D02*
X119557726Y-119729312D01*
X119557726Y-119615026D01*
X119595822Y-119500740D01*
X119672012Y-119424550D01*
X119748202Y-119386455D01*
X119900583Y-119348359D01*
X120014869Y-119348359D01*
X120167250Y-119386455D01*
X120243441Y-119424550D01*
X120319631Y-119500740D01*
X120357726Y-119615026D01*
X120357726Y-119691217D01*
X120319631Y-119805502D01*
X120281536Y-119843598D01*
X120014869Y-119843598D01*
X120014869Y-119691217D01*
X119557726Y-120681693D02*
X120357726Y-120948359D01*
X119557726Y-121215026D01*
X120357726Y-121900740D02*
X120357726Y-121443598D01*
X120357726Y-121672169D02*
X119557726Y-121672169D01*
X119672012Y-121595979D01*
X119748202Y-121519788D01*
X119786298Y-121443598D01*
X120281536Y-122243598D02*
X120319631Y-122281693D01*
X120357726Y-122243598D01*
X120319631Y-122205502D01*
X120281536Y-122243598D01*
X120357726Y-122243598D01*
X119557726Y-122776931D02*
X119557726Y-122853121D01*
X119595822Y-122929312D01*
X119633917Y-122967407D01*
X119710107Y-123005502D01*
X119862488Y-123043598D01*
X120052964Y-123043598D01*
X120205345Y-123005502D01*
X120281536Y-122967407D01*
X120319631Y-122929312D01*
X120357726Y-122853121D01*
X120357726Y-122776931D01*
X120319631Y-122700740D01*
X120281536Y-122662645D01*
X120205345Y-122624550D01*
X120052964Y-122586455D01*
X119862488Y-122586455D01*
X119710107Y-122624550D01*
X119633917Y-122662645D01*
X119595822Y-122700740D01*
X119557726Y-122776931D01*
X130829036Y-117945755D02*
X130352846Y-117612422D01*
X130829036Y-117374327D02*
X129829036Y-117374327D01*
X129829036Y-117755279D01*
X129876656Y-117850517D01*
X129924275Y-117898136D01*
X130019513Y-117945755D01*
X130162370Y-117945755D01*
X130257608Y-117898136D01*
X130305227Y-117850517D01*
X130352846Y-117755279D01*
X130352846Y-117374327D01*
X130829036Y-118898136D02*
X130829036Y-118326708D01*
X130829036Y-118612422D02*
X129829036Y-118612422D01*
X129971894Y-118517184D01*
X130067132Y-118421946D01*
X130114751Y-118326708D01*
X129829036Y-119231470D02*
X129829036Y-119850517D01*
X130209989Y-119517184D01*
X130209989Y-119660041D01*
X130257608Y-119755279D01*
X130305227Y-119802898D01*
X130400465Y-119850517D01*
X130638560Y-119850517D01*
X130733798Y-119802898D01*
X130781417Y-119755279D01*
X130829036Y-119660041D01*
X130829036Y-119374327D01*
X130781417Y-119279089D01*
X130733798Y-119231470D01*
X134206604Y-112024782D02*
X133730414Y-111691449D01*
X134206604Y-111453353D02*
X133206604Y-111453353D01*
X133206604Y-111834306D01*
X133254224Y-111929544D01*
X133301843Y-111977163D01*
X133397081Y-112024782D01*
X133539938Y-112024782D01*
X133635176Y-111977163D01*
X133682795Y-111929544D01*
X133730414Y-111834306D01*
X133730414Y-111453353D01*
X133206604Y-112358115D02*
X133206604Y-113024782D01*
X134206604Y-112596210D01*
X127035560Y-103375440D02*
X126559370Y-103042107D01*
X127035560Y-102804011D02*
X126035560Y-102804011D01*
X126035560Y-103184964D01*
X126083180Y-103280202D01*
X126130799Y-103327821D01*
X126226037Y-103375440D01*
X126368894Y-103375440D01*
X126464132Y-103327821D01*
X126511751Y-103280202D01*
X126559370Y-103184964D01*
X126559370Y-102804011D01*
X126368894Y-104232583D02*
X127035560Y-104232583D01*
X125987941Y-103994487D02*
X126702227Y-103756392D01*
X126702227Y-104375440D01*
X121596077Y-104012902D02*
X121119887Y-103679569D01*
X121596077Y-103441473D02*
X120596077Y-103441473D01*
X120596077Y-103822426D01*
X120643697Y-103917664D01*
X120691316Y-103965283D01*
X120786554Y-104012902D01*
X120929411Y-104012902D01*
X121024649Y-103965283D01*
X121072268Y-103917664D01*
X121119887Y-103822426D01*
X121119887Y-103441473D01*
X120596077Y-104346235D02*
X120596077Y-104965283D01*
X120977030Y-104631949D01*
X120977030Y-104774807D01*
X121024649Y-104870045D01*
X121072268Y-104917664D01*
X121167506Y-104965283D01*
X121405601Y-104965283D01*
X121500839Y-104917664D01*
X121548458Y-104870045D01*
X121596077Y-104774807D01*
X121596077Y-104489092D01*
X121548458Y-104393854D01*
X121500839Y-104346235D01*
X129888686Y-107545433D02*
X129841067Y-107450195D01*
X129745828Y-107354957D01*
X129602971Y-107212100D01*
X129555352Y-107116862D01*
X129555352Y-107021624D01*
X129793447Y-107069243D02*
X129745828Y-106974005D01*
X129650590Y-106878767D01*
X129460114Y-106831148D01*
X129126781Y-106831148D01*
X128936305Y-106878767D01*
X128841067Y-106974005D01*
X128793447Y-107069243D01*
X128793447Y-107259719D01*
X128841067Y-107354957D01*
X128936305Y-107450195D01*
X129126781Y-107497814D01*
X129460114Y-107497814D01*
X129650590Y-107450195D01*
X129745828Y-107354957D01*
X129793447Y-107259719D01*
X129793447Y-107069243D01*
X128888686Y-107878767D02*
X128841067Y-107926386D01*
X128793447Y-108021624D01*
X128793447Y-108259719D01*
X128841067Y-108354957D01*
X128888686Y-108402576D01*
X128983924Y-108450195D01*
X129079162Y-108450195D01*
X129222019Y-108402576D01*
X129793447Y-107831148D01*
X129793447Y-108450195D01*
X141281057Y-107804206D02*
X140804867Y-107470873D01*
X141281057Y-107232778D02*
X140281057Y-107232778D01*
X140281057Y-107613730D01*
X140328677Y-107708968D01*
X140376296Y-107756587D01*
X140471534Y-107804206D01*
X140614391Y-107804206D01*
X140709629Y-107756587D01*
X140757248Y-107708968D01*
X140804867Y-107613730D01*
X140804867Y-107232778D01*
X141281057Y-108756587D02*
X141281057Y-108185159D01*
X141281057Y-108470873D02*
X140281057Y-108470873D01*
X140423915Y-108375635D01*
X140519153Y-108280397D01*
X140566772Y-108185159D01*
X140281057Y-109375635D02*
X140281057Y-109470873D01*
X140328677Y-109566111D01*
X140376296Y-109613730D01*
X140471534Y-109661349D01*
X140662010Y-109708968D01*
X140900105Y-109708968D01*
X141090581Y-109661349D01*
X141185819Y-109613730D01*
X141233438Y-109566111D01*
X141281057Y-109470873D01*
X141281057Y-109375635D01*
X141233438Y-109280397D01*
X141185819Y-109232778D01*
X141090581Y-109185159D01*
X140900105Y-109137540D01*
X140662010Y-109137540D01*
X140471534Y-109185159D01*
X140376296Y-109232778D01*
X140328677Y-109280397D01*
X140281057Y-109375635D01*
X134540492Y-115402190D02*
X134064302Y-115068857D01*
X134540492Y-114830761D02*
X133540492Y-114830761D01*
X133540492Y-115211714D01*
X133588112Y-115306952D01*
X133635731Y-115354571D01*
X133730969Y-115402190D01*
X133873826Y-115402190D01*
X133969064Y-115354571D01*
X134016683Y-115306952D01*
X134064302Y-115211714D01*
X134064302Y-114830761D01*
X133540492Y-116306952D02*
X133540492Y-115830761D01*
X134016683Y-115783142D01*
X133969064Y-115830761D01*
X133921445Y-115925999D01*
X133921445Y-116164095D01*
X133969064Y-116259333D01*
X134016683Y-116306952D01*
X134111921Y-116354571D01*
X134350016Y-116354571D01*
X134445254Y-116306952D01*
X134492873Y-116259333D01*
X134540492Y-116164095D01*
X134540492Y-115925999D01*
X134492873Y-115830761D01*
X134445254Y-115783142D01*
X127423440Y-98750882D02*
X127471059Y-98703263D01*
X127518678Y-98560406D01*
X127518678Y-98465168D01*
X127471059Y-98322310D01*
X127375821Y-98227072D01*
X127280583Y-98179453D01*
X127090107Y-98131834D01*
X126947250Y-98131834D01*
X126756774Y-98179453D01*
X126661536Y-98227072D01*
X126566298Y-98322310D01*
X126518678Y-98465168D01*
X126518678Y-98560406D01*
X126566298Y-98703263D01*
X126613917Y-98750882D01*
X126852012Y-99608025D02*
X127518678Y-99608025D01*
X126471059Y-99369929D02*
X127185345Y-99131834D01*
X127185345Y-99750882D01*
X128556316Y-116449188D02*
X128508697Y-116353950D01*
X128413458Y-116258712D01*
X128270601Y-116115855D01*
X128222982Y-116020617D01*
X128222982Y-115925379D01*
X128461077Y-115972998D02*
X128413458Y-115877760D01*
X128318220Y-115782522D01*
X128127744Y-115734903D01*
X127794411Y-115734903D01*
X127603935Y-115782522D01*
X127508697Y-115877760D01*
X127461077Y-115972998D01*
X127461077Y-116163474D01*
X127508697Y-116258712D01*
X127603935Y-116353950D01*
X127794411Y-116401569D01*
X128127744Y-116401569D01*
X128318220Y-116353950D01*
X128413458Y-116258712D01*
X128461077Y-116163474D01*
X128461077Y-115972998D01*
X128461077Y-117353950D02*
X128461077Y-116782522D01*
X128461077Y-117068236D02*
X127461077Y-117068236D01*
X127603935Y-116972998D01*
X127699173Y-116877760D01*
X127746792Y-116782522D01*
X134343494Y-108079551D02*
X133867304Y-107746218D01*
X134343494Y-107508122D02*
X133343494Y-107508122D01*
X133343494Y-107889075D01*
X133391114Y-107984313D01*
X133438733Y-108031932D01*
X133533971Y-108079551D01*
X133676828Y-108079551D01*
X133772066Y-108031932D01*
X133819685Y-107984313D01*
X133867304Y-107889075D01*
X133867304Y-107508122D01*
X134343494Y-108555741D02*
X134343494Y-108746218D01*
X134295875Y-108841456D01*
X134248256Y-108889075D01*
X134105399Y-108984313D01*
X133914923Y-109031932D01*
X133533971Y-109031932D01*
X133438733Y-108984313D01*
X133391114Y-108936694D01*
X133343494Y-108841456D01*
X133343494Y-108650979D01*
X133391114Y-108555741D01*
X133438733Y-108508122D01*
X133533971Y-108460503D01*
X133772066Y-108460503D01*
X133867304Y-108508122D01*
X133914923Y-108555741D01*
X133962542Y-108650979D01*
X133962542Y-108841456D01*
X133914923Y-108936694D01*
X133867304Y-108984313D01*
X133772066Y-109031932D01*
X138510169Y-98801736D02*
X138557788Y-98754117D01*
X138605407Y-98611260D01*
X138605407Y-98516022D01*
X138557788Y-98373164D01*
X138462550Y-98277926D01*
X138367312Y-98230307D01*
X138176836Y-98182688D01*
X138033979Y-98182688D01*
X137843503Y-98230307D01*
X137748265Y-98277926D01*
X137653027Y-98373164D01*
X137605407Y-98516022D01*
X137605407Y-98611260D01*
X137653027Y-98754117D01*
X137700646Y-98801736D01*
X137605407Y-99135069D02*
X137605407Y-99754117D01*
X137986360Y-99420783D01*
X137986360Y-99563641D01*
X138033979Y-99658879D01*
X138081598Y-99706498D01*
X138176836Y-99754117D01*
X138414931Y-99754117D01*
X138510169Y-99706498D01*
X138557788Y-99658879D01*
X138605407Y-99563641D01*
X138605407Y-99277926D01*
X138557788Y-99182688D01*
X138510169Y-99135069D01*
X141245314Y-112044426D02*
X140769124Y-111711093D01*
X141245314Y-111472997D02*
X140245314Y-111472997D01*
X140245314Y-111853950D01*
X140292934Y-111949188D01*
X140340553Y-111996807D01*
X140435791Y-112044426D01*
X140578648Y-112044426D01*
X140673886Y-111996807D01*
X140721505Y-111949188D01*
X140769124Y-111853950D01*
X140769124Y-111472997D01*
X140673886Y-112615854D02*
X140626267Y-112520616D01*
X140578648Y-112472997D01*
X140483410Y-112425378D01*
X140435791Y-112425378D01*
X140340553Y-112472997D01*
X140292934Y-112520616D01*
X140245314Y-112615854D01*
X140245314Y-112806331D01*
X140292934Y-112901569D01*
X140340553Y-112949188D01*
X140435791Y-112996807D01*
X140483410Y-112996807D01*
X140578648Y-112949188D01*
X140626267Y-112901569D01*
X140673886Y-112806331D01*
X140673886Y-112615854D01*
X140721505Y-112520616D01*
X140769124Y-112472997D01*
X140864362Y-112425378D01*
X141054838Y-112425378D01*
X141150076Y-112472997D01*
X141197695Y-112520616D01*
X141245314Y-112615854D01*
X141245314Y-112806331D01*
X141197695Y-112901569D01*
X141150076Y-112949188D01*
X141054838Y-112996807D01*
X140864362Y-112996807D01*
X140769124Y-112949188D01*
X140721505Y-112901569D01*
X140673886Y-112806331D01*
X142064536Y-118658069D02*
X141064536Y-118658069D01*
X141064536Y-118896165D01*
X141112156Y-119039022D01*
X141207394Y-119134260D01*
X141302632Y-119181879D01*
X141493108Y-119229498D01*
X141635965Y-119229498D01*
X141826441Y-119181879D01*
X141921679Y-119134260D01*
X142016917Y-119039022D01*
X142064536Y-118896165D01*
X142064536Y-118658069D01*
X142064536Y-120181879D02*
X142064536Y-119610450D01*
X142064536Y-119896165D02*
X141064536Y-119896165D01*
X141207394Y-119800926D01*
X141302632Y-119705688D01*
X141350251Y-119610450D01*
X124141258Y-111815348D02*
X123665068Y-111482015D01*
X124141258Y-111243919D02*
X123141258Y-111243919D01*
X123141258Y-111624872D01*
X123188878Y-111720110D01*
X123236497Y-111767729D01*
X123331735Y-111815348D01*
X123474592Y-111815348D01*
X123569830Y-111767729D01*
X123617449Y-111720110D01*
X123665068Y-111624872D01*
X123665068Y-111243919D01*
X123236497Y-112196300D02*
X123188878Y-112243919D01*
X123141258Y-112339157D01*
X123141258Y-112577253D01*
X123188878Y-112672491D01*
X123236497Y-112720110D01*
X123331735Y-112767729D01*
X123426973Y-112767729D01*
X123569830Y-112720110D01*
X124141258Y-112148681D01*
X124141258Y-112767729D01*
X118861861Y-112471730D02*
X118385671Y-112138397D01*
X118861861Y-111900302D02*
X117861861Y-111900302D01*
X117861861Y-112281254D01*
X117909481Y-112376492D01*
X117957100Y-112424111D01*
X118052338Y-112471730D01*
X118195195Y-112471730D01*
X118290433Y-112424111D01*
X118338052Y-112376492D01*
X118385671Y-112281254D01*
X118385671Y-111900302D01*
X118861861Y-113424111D02*
X118861861Y-112852683D01*
X118861861Y-113138397D02*
X117861861Y-113138397D01*
X118004719Y-113043159D01*
X118099957Y-112947921D01*
X118147576Y-112852683D01*
X117957100Y-113805064D02*
X117909481Y-113852683D01*
X117861861Y-113947921D01*
X117861861Y-114186016D01*
X117909481Y-114281254D01*
X117957100Y-114328873D01*
X118052338Y-114376492D01*
X118147576Y-114376492D01*
X118290433Y-114328873D01*
X118861861Y-113757445D01*
X118861861Y-114376492D01*
X138332871Y-103160656D02*
X137332871Y-103160656D01*
X137332871Y-103398752D01*
X137380491Y-103541609D01*
X137475729Y-103636847D01*
X137570967Y-103684466D01*
X137761443Y-103732085D01*
X137904300Y-103732085D01*
X138094776Y-103684466D01*
X138190014Y-103636847D01*
X138285252Y-103541609D01*
X138332871Y-103398752D01*
X138332871Y-103160656D01*
X137428110Y-104113037D02*
X137380491Y-104160656D01*
X137332871Y-104255894D01*
X137332871Y-104493990D01*
X137380491Y-104589228D01*
X137428110Y-104636847D01*
X137523348Y-104684466D01*
X137618586Y-104684466D01*
X137761443Y-104636847D01*
X138332871Y-104065418D01*
X138332871Y-104684466D01*
X130496298Y-111856082D02*
X130020108Y-111522749D01*
X130496298Y-111284653D02*
X129496298Y-111284653D01*
X129496298Y-111665606D01*
X129543918Y-111760844D01*
X129591537Y-111808463D01*
X129686775Y-111856082D01*
X129829632Y-111856082D01*
X129924870Y-111808463D01*
X129972489Y-111760844D01*
X130020108Y-111665606D01*
X130020108Y-111284653D01*
X130496298Y-112808463D02*
X130496298Y-112237034D01*
X130496298Y-112522749D02*
X129496298Y-112522749D01*
X129639156Y-112427510D01*
X129734394Y-112332272D01*
X129782013Y-112237034D01*
X133697629Y-97224228D02*
X134507153Y-97224228D01*
X134602391Y-97271847D01*
X134650010Y-97319466D01*
X134697629Y-97414704D01*
X134697629Y-97605180D01*
X134650010Y-97700418D01*
X134602391Y-97748037D01*
X134507153Y-97795656D01*
X133697629Y-97795656D01*
X133792868Y-98224228D02*
X133745249Y-98271847D01*
X133697629Y-98367085D01*
X133697629Y-98605180D01*
X133745249Y-98700418D01*
X133792868Y-98748037D01*
X133888106Y-98795656D01*
X133983344Y-98795656D01*
X134126201Y-98748037D01*
X134697629Y-98176609D01*
X134697629Y-98795656D01*
X121708779Y-108261680D02*
X121232589Y-107928347D01*
X121708779Y-107690252D02*
X120708779Y-107690252D01*
X120708779Y-108071204D01*
X120756399Y-108166442D01*
X120804018Y-108214061D01*
X120899256Y-108261680D01*
X121042113Y-108261680D01*
X121137351Y-108214061D01*
X121184970Y-108166442D01*
X121232589Y-108071204D01*
X121232589Y-107690252D01*
X121708779Y-109214061D02*
X121708779Y-108642633D01*
X121708779Y-108928347D02*
X120708779Y-108928347D01*
X120851637Y-108833109D01*
X120946875Y-108737871D01*
X120994494Y-108642633D01*
X121708779Y-110166442D02*
X121708779Y-109595014D01*
X121708779Y-109880728D02*
X120708779Y-109880728D01*
X120851637Y-109785490D01*
X120946875Y-109690252D01*
X120994494Y-109595014D01*
X141915321Y-98833939D02*
X141962940Y-98786320D01*
X142010559Y-98643463D01*
X142010559Y-98548225D01*
X141962940Y-98405367D01*
X141867702Y-98310129D01*
X141772464Y-98262510D01*
X141581988Y-98214891D01*
X141439131Y-98214891D01*
X141248655Y-98262510D01*
X141153417Y-98310129D01*
X141058179Y-98405367D01*
X141010559Y-98548225D01*
X141010559Y-98643463D01*
X141058179Y-98786320D01*
X141105798Y-98833939D01*
X141105798Y-99214891D02*
X141058179Y-99262510D01*
X141010559Y-99357748D01*
X141010559Y-99595844D01*
X141058179Y-99691082D01*
X141105798Y-99738701D01*
X141201036Y-99786320D01*
X141296274Y-99786320D01*
X141439131Y-99738701D01*
X142010559Y-99167272D01*
X142010559Y-99786320D01*
X124049894Y-98774624D02*
X124097513Y-98727005D01*
X124145132Y-98584148D01*
X124145132Y-98488910D01*
X124097513Y-98346052D01*
X124002275Y-98250814D01*
X123907037Y-98203195D01*
X123716561Y-98155576D01*
X123573704Y-98155576D01*
X123383228Y-98203195D01*
X123287990Y-98250814D01*
X123192752Y-98346052D01*
X123145132Y-98488910D01*
X123145132Y-98584148D01*
X123192752Y-98727005D01*
X123240371Y-98774624D01*
X123145132Y-99679386D02*
X123145132Y-99203195D01*
X123621323Y-99155576D01*
X123573704Y-99203195D01*
X123526085Y-99298433D01*
X123526085Y-99536529D01*
X123573704Y-99631767D01*
X123621323Y-99679386D01*
X123716561Y-99727005D01*
X123954656Y-99727005D01*
X124049894Y-99679386D01*
X124097513Y-99631767D01*
X124145132Y-99536529D01*
X124145132Y-99298433D01*
X124097513Y-99203195D01*
X124049894Y-99155576D01*
D11*
X133702809Y-119284834D02*
X133248681Y-119284834D01*
X133702809Y-120754834D02*
X133248681Y-120754834D01*
X136257187Y-111984029D02*
X136257187Y-112438157D01*
X134787187Y-111984029D02*
X134787187Y-112438157D01*
X125519101Y-103852659D02*
X125519101Y-103398531D01*
X124049101Y-103852659D02*
X124049101Y-103398531D01*
X123421912Y-103418315D02*
X123421912Y-103872443D01*
X121951912Y-103418315D02*
X121951912Y-103872443D01*
X128501067Y-107640672D02*
X128501067Y-106990672D01*
X125381067Y-107640672D02*
X125381067Y-106990672D01*
X125381067Y-107640672D02*
X125381067Y-108290672D01*
X128501067Y-107640672D02*
X128501067Y-109315672D01*
X139800471Y-107992936D02*
X139800471Y-108447064D01*
X138330471Y-107992936D02*
X138330471Y-108447064D01*
X136722674Y-114838251D02*
X137176802Y-114838251D01*
X136722674Y-116308251D02*
X137176802Y-116308251D01*
X124651298Y-99178801D02*
X124651298Y-98656297D01*
X126121298Y-99178801D02*
X126121298Y-98656297D01*
X123868478Y-116544427D02*
X123868478Y-115894427D01*
X123868478Y-116544427D02*
X123868478Y-117194427D01*
X126988478Y-116544427D02*
X126988478Y-118219427D01*
X126988478Y-116544427D02*
X126988478Y-115894427D01*
X134810928Y-108019154D02*
X134810928Y-108473282D01*
X136280928Y-108019154D02*
X136280928Y-108473282D01*
G36*
X122124143Y-118456857D02*
G01*
X122271348Y-118456554D01*
X122435481Y-118456368D01*
X122617484Y-118456274D01*
X122818297Y-118456245D01*
X123038864Y-118456255D01*
X123280124Y-118456280D01*
X123543021Y-118456294D01*
X123585172Y-118456294D01*
X123845800Y-118456270D01*
X124084928Y-118456231D01*
X124303492Y-118456208D01*
X124502427Y-118456229D01*
X124682667Y-118456323D01*
X124845147Y-118456521D01*
X124990802Y-118456853D01*
X125120566Y-118457347D01*
X125235375Y-118458033D01*
X125336162Y-118458940D01*
X125423862Y-118460099D01*
X125499411Y-118461538D01*
X125563743Y-118463287D01*
X125617793Y-118465376D01*
X125662495Y-118467833D01*
X125698784Y-118470689D01*
X125727595Y-118473973D01*
X125749863Y-118477714D01*
X125766522Y-118481942D01*
X125778507Y-118486687D01*
X125786753Y-118491977D01*
X125792194Y-118497843D01*
X125795766Y-118504314D01*
X125798402Y-118511419D01*
X125801038Y-118519188D01*
X125804609Y-118527650D01*
X125806277Y-118532008D01*
X125808243Y-118540521D01*
X125810043Y-118553222D01*
X125811687Y-118571031D01*
X125813179Y-118594867D01*
X125814529Y-118625650D01*
X125815743Y-118664299D01*
X125816829Y-118711734D01*
X125817793Y-118768873D01*
X125818643Y-118836637D01*
X125819385Y-118915945D01*
X125820029Y-119007717D01*
X125820579Y-119112872D01*
X125821045Y-119232329D01*
X125821432Y-119367008D01*
X125821748Y-119517828D01*
X125822001Y-119685710D01*
X125822198Y-119871571D01*
X125822345Y-120076333D01*
X125822450Y-120300914D01*
X125822521Y-120546234D01*
X125822564Y-120813212D01*
X125822569Y-120851595D01*
X125822612Y-121116994D01*
X125822657Y-121360866D01*
X125822680Y-121584133D01*
X125822656Y-121787720D01*
X125822562Y-121972549D01*
X125822375Y-122139543D01*
X125822071Y-122289626D01*
X125821626Y-122423720D01*
X125821017Y-122542750D01*
X125820221Y-122647637D01*
X125819212Y-122739306D01*
X125817969Y-122818679D01*
X125816467Y-122886679D01*
X125814683Y-122944230D01*
X125812593Y-122992254D01*
X125810174Y-123031676D01*
X125807402Y-123063417D01*
X125804253Y-123088402D01*
X125800704Y-123107552D01*
X125796730Y-123121793D01*
X125792310Y-123132045D01*
X125787418Y-123139234D01*
X125782032Y-123144281D01*
X125776128Y-123148111D01*
X125769681Y-123151645D01*
X125762669Y-123155808D01*
X125760819Y-123156891D01*
X125755312Y-123159103D01*
X125747000Y-123161130D01*
X125734941Y-123162978D01*
X125718195Y-123164655D01*
X125695819Y-123166171D01*
X125666872Y-123167533D01*
X125630412Y-123168749D01*
X125585499Y-123169827D01*
X125531189Y-123170776D01*
X125466542Y-123171604D01*
X125390616Y-123172319D01*
X125302470Y-123172929D01*
X125201161Y-123173442D01*
X125085749Y-123173866D01*
X124955292Y-123174210D01*
X124808848Y-123174482D01*
X124645476Y-123174689D01*
X124464233Y-123174840D01*
X124264180Y-123174944D01*
X124044373Y-123175008D01*
X123803871Y-123175040D01*
X123541734Y-123175049D01*
X121350163Y-123175049D01*
X121311781Y-123136667D01*
X121288043Y-123109561D01*
X121276243Y-123082663D01*
X121273399Y-123046356D01*
X121273399Y-122994427D01*
X121361338Y-122994427D01*
X121411234Y-122992489D01*
X121521655Y-122973717D01*
X121623119Y-122936699D01*
X121714284Y-122883547D01*
X121793805Y-122816370D01*
X121815381Y-122790721D01*
X122786110Y-122790721D01*
X123962977Y-122793796D01*
X125139843Y-122796871D01*
X125198754Y-122823509D01*
X125223315Y-122835431D01*
X125253566Y-122852670D01*
X125270692Y-122865842D01*
X125278723Y-122873840D01*
X125293625Y-122881538D01*
X125294897Y-122877656D01*
X125296923Y-122854396D01*
X125298758Y-122812042D01*
X125300359Y-122752784D01*
X125301681Y-122678809D01*
X125302680Y-122592306D01*
X125303312Y-122495464D01*
X125303532Y-122390471D01*
X125303481Y-122321560D01*
X125303223Y-122223309D01*
X125302769Y-122133886D01*
X125302142Y-122055583D01*
X125301367Y-121990693D01*
X125300467Y-121941505D01*
X125299466Y-121910312D01*
X125298389Y-121899405D01*
X125295169Y-121900594D01*
X125277584Y-121910740D01*
X125251290Y-121927876D01*
X125238823Y-121936376D01*
X125224754Y-121945587D01*
X125210483Y-121953683D01*
X125194611Y-121960731D01*
X125175741Y-121966799D01*
X125152473Y-121971955D01*
X125123410Y-121976265D01*
X125087153Y-121979797D01*
X125042302Y-121982619D01*
X124987460Y-121984798D01*
X124921229Y-121986402D01*
X124842209Y-121987497D01*
X124749003Y-121988151D01*
X124640211Y-121988432D01*
X124514435Y-121988407D01*
X124370277Y-121988144D01*
X124206339Y-121987710D01*
X124021221Y-121987171D01*
X123842364Y-121986637D01*
X123683506Y-121986111D01*
X123544448Y-121985566D01*
X123423797Y-121984971D01*
X123320160Y-121984297D01*
X123232143Y-121983513D01*
X123158355Y-121982590D01*
X123097401Y-121981497D01*
X123047889Y-121980204D01*
X123008425Y-121978681D01*
X122977616Y-121976897D01*
X122954070Y-121974824D01*
X122936392Y-121972430D01*
X122923191Y-121969686D01*
X122913072Y-121966560D01*
X122904643Y-121963024D01*
X122896507Y-121959125D01*
X122859676Y-121939478D01*
X122829523Y-121920691D01*
X122828040Y-121919644D01*
X122805791Y-121905314D01*
X122792834Y-121899405D01*
X122792381Y-121900412D01*
X122790935Y-121917611D01*
X122789612Y-121954260D01*
X122788448Y-122007954D01*
X122787479Y-122076286D01*
X122786743Y-122156852D01*
X122786274Y-122247246D01*
X122786110Y-122345063D01*
X122786110Y-122790721D01*
X121815381Y-122790721D01*
X121860337Y-122737278D01*
X121912538Y-122648382D01*
X121949062Y-122551791D01*
X121968566Y-122449616D01*
X121969705Y-122343966D01*
X121951137Y-122236952D01*
X121911516Y-122130684D01*
X121853648Y-122033697D01*
X121778816Y-121948623D01*
X121690747Y-121879901D01*
X121591748Y-121828998D01*
X121484125Y-121797381D01*
X121370186Y-121786516D01*
X121273399Y-121786516D01*
X121273399Y-120558800D01*
X121882999Y-120558800D01*
X121883249Y-121690560D01*
X121913854Y-121651049D01*
X121921221Y-121641668D01*
X121975570Y-121578733D01*
X122043391Y-121509919D01*
X122126648Y-121433320D01*
X122227310Y-121347028D01*
X122247979Y-121329864D01*
X122297541Y-121289083D01*
X122358458Y-121239328D01*
X122429030Y-121181961D01*
X122507556Y-121118347D01*
X122592336Y-121049847D01*
X122681669Y-120977826D01*
X122773854Y-120903646D01*
X122792834Y-120888399D01*
X122867192Y-120828670D01*
X122959980Y-120754263D01*
X123050520Y-120681785D01*
X123137110Y-120612602D01*
X123218050Y-120548075D01*
X123291638Y-120489569D01*
X123356176Y-120438446D01*
X123409961Y-120396069D01*
X123451294Y-120363801D01*
X123478474Y-120343006D01*
X123489800Y-120335047D01*
X123493903Y-120336805D01*
X123514466Y-120349686D01*
X123550693Y-120374031D01*
X123600956Y-120408669D01*
X123663624Y-120452430D01*
X123737068Y-120504141D01*
X123819659Y-120562632D01*
X123909768Y-120626732D01*
X124005763Y-120695270D01*
X124106017Y-120767073D01*
X124208900Y-120840972D01*
X124312782Y-120915795D01*
X124416033Y-120990371D01*
X124517024Y-121063529D01*
X124614126Y-121134097D01*
X124705709Y-121200905D01*
X124790143Y-121262781D01*
X124865799Y-121318555D01*
X124931048Y-121367054D01*
X124984260Y-121407109D01*
X125023805Y-121437547D01*
X125049158Y-121457972D01*
X125103427Y-121504017D01*
X125159907Y-121554304D01*
X125209801Y-121601101D01*
X125303532Y-121692265D01*
X125303532Y-120537826D01*
X125227332Y-120538460D01*
X125185292Y-120537342D01*
X125149466Y-120531612D01*
X125111904Y-120519026D01*
X125063709Y-120497348D01*
X125057029Y-120494127D01*
X125007491Y-120468728D01*
X124959501Y-120441920D01*
X124922598Y-120418999D01*
X124915966Y-120414431D01*
X124884725Y-120392400D01*
X124839786Y-120360223D01*
X124783279Y-120319459D01*
X124717336Y-120271671D01*
X124644089Y-120218418D01*
X124565668Y-120161261D01*
X124484204Y-120101761D01*
X124401830Y-120041479D01*
X124320676Y-119981976D01*
X124242874Y-119924811D01*
X124170555Y-119871546D01*
X124105850Y-119823742D01*
X124050891Y-119782959D01*
X124007808Y-119750758D01*
X123978734Y-119728700D01*
X123965799Y-119718345D01*
X123961483Y-119713872D01*
X123959444Y-119709680D01*
X123962058Y-119706273D01*
X123971118Y-119703591D01*
X123988417Y-119701575D01*
X124015746Y-119700168D01*
X124054897Y-119699311D01*
X124107665Y-119698946D01*
X124175839Y-119699013D01*
X124261214Y-119699456D01*
X124365581Y-119700214D01*
X124490732Y-119701231D01*
X124535432Y-119701608D01*
X124656527Y-119702747D01*
X124757820Y-119703944D01*
X124841394Y-119705280D01*
X124909336Y-119706839D01*
X124963731Y-119708701D01*
X125006664Y-119710950D01*
X125040221Y-119713668D01*
X125066487Y-119716937D01*
X125087548Y-119720838D01*
X125105489Y-119725455D01*
X125131902Y-119733724D01*
X125193904Y-119757333D01*
X125246705Y-119783231D01*
X125283777Y-119808381D01*
X125285207Y-119809577D01*
X125289556Y-119811748D01*
X125293158Y-119809588D01*
X125296083Y-119801272D01*
X125298401Y-119784976D01*
X125300183Y-119758875D01*
X125301499Y-119721145D01*
X125302418Y-119669960D01*
X125303010Y-119603496D01*
X125303347Y-119519929D01*
X125303497Y-119417433D01*
X125303532Y-119294184D01*
X125303532Y-118762620D01*
X125245915Y-118801393D01*
X125237025Y-118807484D01*
X125222201Y-118817940D01*
X125208554Y-118827337D01*
X125194897Y-118835733D01*
X125180043Y-118843183D01*
X125162802Y-118849743D01*
X125141987Y-118855470D01*
X125116412Y-118860421D01*
X125084887Y-118864650D01*
X125046225Y-118868215D01*
X124999239Y-118871172D01*
X124942740Y-118873576D01*
X124875541Y-118875485D01*
X124796454Y-118876954D01*
X124704292Y-118878040D01*
X124597866Y-118878798D01*
X124475989Y-118879286D01*
X124337473Y-118879558D01*
X124181131Y-118879673D01*
X124005774Y-118879685D01*
X123810214Y-118879651D01*
X123593265Y-118879627D01*
X123470645Y-118879636D01*
X123265579Y-118879673D01*
X123081248Y-118879689D01*
X122916466Y-118879628D01*
X122770048Y-118879432D01*
X122640806Y-118879046D01*
X122527554Y-118878411D01*
X122429107Y-118877472D01*
X122344276Y-118876171D01*
X122271876Y-118874452D01*
X122210721Y-118872257D01*
X122159624Y-118869531D01*
X122117399Y-118866215D01*
X122082859Y-118862254D01*
X122054818Y-118857591D01*
X122032090Y-118852169D01*
X122013488Y-118845930D01*
X121997825Y-118838819D01*
X121983916Y-118830778D01*
X121970573Y-118821750D01*
X121956611Y-118811680D01*
X121940843Y-118800509D01*
X121882999Y-118760719D01*
X121882999Y-119820602D01*
X121946098Y-119782605D01*
X121971137Y-119767923D01*
X121998718Y-119753385D01*
X122026832Y-119741289D01*
X122057683Y-119731384D01*
X122093476Y-119723422D01*
X122136415Y-119717155D01*
X122188706Y-119712334D01*
X122252551Y-119708710D01*
X122330157Y-119706035D01*
X122423726Y-119704059D01*
X122535465Y-119702534D01*
X122667577Y-119701212D01*
X122787566Y-119700303D01*
X122904195Y-119699896D01*
X122999663Y-119700149D01*
X123073688Y-119701059D01*
X123125987Y-119702623D01*
X123156281Y-119704837D01*
X123164288Y-119707696D01*
X123160990Y-119710755D01*
X123139540Y-119728910D01*
X123103021Y-119758641D01*
X123053574Y-119798277D01*
X122993339Y-119846145D01*
X122924459Y-119900573D01*
X122849075Y-119959889D01*
X122769328Y-120022421D01*
X122687360Y-120086495D01*
X122605312Y-120150441D01*
X122525326Y-120212585D01*
X122449543Y-120271255D01*
X122380105Y-120324779D01*
X122319153Y-120371486D01*
X122268828Y-120409702D01*
X122231272Y-120437755D01*
X122208627Y-120453973D01*
X122136344Y-120499281D01*
X122056595Y-120539255D01*
X121988320Y-120560786D01*
X121930976Y-120564089D01*
X121882999Y-120558800D01*
X121273399Y-120558800D01*
X121273399Y-120166163D01*
X121273412Y-119955019D01*
X121273462Y-119750896D01*
X121273562Y-119567230D01*
X121273724Y-119402925D01*
X121273961Y-119256887D01*
X121274285Y-119128022D01*
X121274707Y-119015233D01*
X121275241Y-118917428D01*
X121275899Y-118833512D01*
X121276693Y-118762389D01*
X121277636Y-118702966D01*
X121278740Y-118654148D01*
X121280016Y-118614839D01*
X121281479Y-118583947D01*
X121283139Y-118560375D01*
X121285010Y-118543030D01*
X121287104Y-118530817D01*
X121289432Y-118522641D01*
X121292008Y-118517408D01*
X121295577Y-118511412D01*
X121299110Y-118504637D01*
X121302620Y-118498438D01*
X121307050Y-118492790D01*
X121313340Y-118487669D01*
X121322433Y-118483047D01*
X121335271Y-118478901D01*
X121352794Y-118475203D01*
X121375945Y-118471929D01*
X121405666Y-118469053D01*
X121442897Y-118466549D01*
X121488581Y-118464392D01*
X121543659Y-118462556D01*
X121609073Y-118461016D01*
X121685765Y-118459746D01*
X121774676Y-118458721D01*
X121876749Y-118457915D01*
X121882999Y-118457882D01*
X121992924Y-118457302D01*
X122124143Y-118456857D01*
G37*
D12*
X122124143Y-118456857D02*
X122271348Y-118456554D01*
X122435481Y-118456368D01*
X122617484Y-118456274D01*
X122818297Y-118456245D01*
X123038864Y-118456255D01*
X123280124Y-118456280D01*
X123543021Y-118456294D01*
X123585172Y-118456294D01*
X123845800Y-118456270D01*
X124084928Y-118456231D01*
X124303492Y-118456208D01*
X124502427Y-118456229D01*
X124682667Y-118456323D01*
X124845147Y-118456521D01*
X124990802Y-118456853D01*
X125120566Y-118457347D01*
X125235375Y-118458033D01*
X125336162Y-118458940D01*
X125423862Y-118460099D01*
X125499411Y-118461538D01*
X125563743Y-118463287D01*
X125617793Y-118465376D01*
X125662495Y-118467833D01*
X125698784Y-118470689D01*
X125727595Y-118473973D01*
X125749863Y-118477714D01*
X125766522Y-118481942D01*
X125778507Y-118486687D01*
X125786753Y-118491977D01*
X125792194Y-118497843D01*
X125795766Y-118504314D01*
X125798402Y-118511419D01*
X125801038Y-118519188D01*
X125804609Y-118527650D01*
X125806277Y-118532008D01*
X125808243Y-118540521D01*
X125810043Y-118553222D01*
X125811687Y-118571031D01*
X125813179Y-118594867D01*
X125814529Y-118625650D01*
X125815743Y-118664299D01*
X125816829Y-118711734D01*
X125817793Y-118768873D01*
X125818643Y-118836637D01*
X125819385Y-118915945D01*
X125820029Y-119007717D01*
X125820579Y-119112872D01*
X125821045Y-119232329D01*
X125821432Y-119367008D01*
X125821748Y-119517828D01*
X125822001Y-119685710D01*
X125822198Y-119871571D01*
X125822345Y-120076333D01*
X125822450Y-120300914D01*
X125822521Y-120546234D01*
X125822564Y-120813212D01*
X125822569Y-120851595D01*
X125822612Y-121116994D01*
X125822657Y-121360866D01*
X125822680Y-121584133D01*
X125822656Y-121787720D01*
X125822562Y-121972549D01*
X125822375Y-122139543D01*
X125822071Y-122289626D01*
X125821626Y-122423720D01*
X125821017Y-122542750D01*
X125820221Y-122647637D01*
X125819212Y-122739306D01*
X125817969Y-122818679D01*
X125816467Y-122886679D01*
X125814683Y-122944230D01*
X125812593Y-122992254D01*
X125810174Y-123031676D01*
X125807402Y-123063417D01*
X125804253Y-123088402D01*
X125800704Y-123107552D01*
X125796730Y-123121793D01*
X125792310Y-123132045D01*
X125787418Y-123139234D01*
X125782032Y-123144281D01*
X125776128Y-123148111D01*
X125769681Y-123151645D01*
X125762669Y-123155808D01*
X125760819Y-123156891D01*
X125755312Y-123159103D01*
X125747000Y-123161130D01*
X125734941Y-123162978D01*
X125718195Y-123164655D01*
X125695819Y-123166171D01*
X125666872Y-123167533D01*
X125630412Y-123168749D01*
X125585499Y-123169827D01*
X125531189Y-123170776D01*
X125466542Y-123171604D01*
X125390616Y-123172319D01*
X125302470Y-123172929D01*
X125201161Y-123173442D01*
X125085749Y-123173866D01*
X124955292Y-123174210D01*
X124808848Y-123174482D01*
X124645476Y-123174689D01*
X124464233Y-123174840D01*
X124264180Y-123174944D01*
X124044373Y-123175008D01*
X123803871Y-123175040D01*
X123541734Y-123175049D01*
X121350163Y-123175049D01*
X121311781Y-123136667D01*
X121288043Y-123109561D01*
X121276243Y-123082663D01*
X121273399Y-123046356D01*
X121273399Y-122994427D01*
X121361338Y-122994427D01*
X121411234Y-122992489D01*
X121521655Y-122973717D01*
X121623119Y-122936699D01*
X121714284Y-122883547D01*
X121793805Y-122816370D01*
X121815381Y-122790721D01*
X122786110Y-122790721D01*
X123962977Y-122793796D01*
X125139843Y-122796871D01*
X125198754Y-122823509D01*
X125223315Y-122835431D01*
X125253566Y-122852670D01*
X125270692Y-122865842D01*
X125278723Y-122873840D01*
X125293625Y-122881538D01*
X125294897Y-122877656D01*
X125296923Y-122854396D01*
X125298758Y-122812042D01*
X125300359Y-122752784D01*
X125301681Y-122678809D01*
X125302680Y-122592306D01*
X125303312Y-122495464D01*
X125303532Y-122390471D01*
X125303481Y-122321560D01*
X125303223Y-122223309D01*
X125302769Y-122133886D01*
X125302142Y-122055583D01*
X125301367Y-121990693D01*
X125300467Y-121941505D01*
X125299466Y-121910312D01*
X125298389Y-121899405D01*
X125295169Y-121900594D01*
X125277584Y-121910740D01*
X125251290Y-121927876D01*
X125238823Y-121936376D01*
X125224754Y-121945587D01*
X125210483Y-121953683D01*
X125194611Y-121960731D01*
X125175741Y-121966799D01*
X125152473Y-121971955D01*
X125123410Y-121976265D01*
X125087153Y-121979797D01*
X125042302Y-121982619D01*
X124987460Y-121984798D01*
X124921229Y-121986402D01*
X124842209Y-121987497D01*
X124749003Y-121988151D01*
X124640211Y-121988432D01*
X124514435Y-121988407D01*
X124370277Y-121988144D01*
X124206339Y-121987710D01*
X124021221Y-121987171D01*
X123842364Y-121986637D01*
X123683506Y-121986111D01*
X123544448Y-121985566D01*
X123423797Y-121984971D01*
X123320160Y-121984297D01*
X123232143Y-121983513D01*
X123158355Y-121982590D01*
X123097401Y-121981497D01*
X123047889Y-121980204D01*
X123008425Y-121978681D01*
X122977616Y-121976897D01*
X122954070Y-121974824D01*
X122936392Y-121972430D01*
X122923191Y-121969686D01*
X122913072Y-121966560D01*
X122904643Y-121963024D01*
X122896507Y-121959125D01*
X122859676Y-121939478D01*
X122829523Y-121920691D01*
X122828040Y-121919644D01*
X122805791Y-121905314D01*
X122792834Y-121899405D01*
X122792381Y-121900412D01*
X122790935Y-121917611D01*
X122789612Y-121954260D01*
X122788448Y-122007954D01*
X122787479Y-122076286D01*
X122786743Y-122156852D01*
X122786274Y-122247246D01*
X122786110Y-122345063D01*
X122786110Y-122790721D01*
X121815381Y-122790721D01*
X121860337Y-122737278D01*
X121912538Y-122648382D01*
X121949062Y-122551791D01*
X121968566Y-122449616D01*
X121969705Y-122343966D01*
X121951137Y-122236952D01*
X121911516Y-122130684D01*
X121853648Y-122033697D01*
X121778816Y-121948623D01*
X121690747Y-121879901D01*
X121591748Y-121828998D01*
X121484125Y-121797381D01*
X121370186Y-121786516D01*
X121273399Y-121786516D01*
X121273399Y-120558800D01*
X121882999Y-120558800D01*
X121883249Y-121690560D01*
X121913854Y-121651049D01*
X121921221Y-121641668D01*
X121975570Y-121578733D01*
X122043391Y-121509919D01*
X122126648Y-121433320D01*
X122227310Y-121347028D01*
X122247979Y-121329864D01*
X122297541Y-121289083D01*
X122358458Y-121239328D01*
X122429030Y-121181961D01*
X122507556Y-121118347D01*
X122592336Y-121049847D01*
X122681669Y-120977826D01*
X122773854Y-120903646D01*
X122792834Y-120888399D01*
X122867192Y-120828670D01*
X122959980Y-120754263D01*
X123050520Y-120681785D01*
X123137110Y-120612602D01*
X123218050Y-120548075D01*
X123291638Y-120489569D01*
X123356176Y-120438446D01*
X123409961Y-120396069D01*
X123451294Y-120363801D01*
X123478474Y-120343006D01*
X123489800Y-120335047D01*
X123493903Y-120336805D01*
X123514466Y-120349686D01*
X123550693Y-120374031D01*
X123600956Y-120408669D01*
X123663624Y-120452430D01*
X123737068Y-120504141D01*
X123819659Y-120562632D01*
X123909768Y-120626732D01*
X124005763Y-120695270D01*
X124106017Y-120767073D01*
X124208900Y-120840972D01*
X124312782Y-120915795D01*
X124416033Y-120990371D01*
X124517024Y-121063529D01*
X124614126Y-121134097D01*
X124705709Y-121200905D01*
X124790143Y-121262781D01*
X124865799Y-121318555D01*
X124931048Y-121367054D01*
X124984260Y-121407109D01*
X125023805Y-121437547D01*
X125049158Y-121457972D01*
X125103427Y-121504017D01*
X125159907Y-121554304D01*
X125209801Y-121601101D01*
X125303532Y-121692265D01*
X125303532Y-120537826D01*
X125227332Y-120538460D01*
X125185292Y-120537342D01*
X125149466Y-120531612D01*
X125111904Y-120519026D01*
X125063709Y-120497348D01*
X125057029Y-120494127D01*
X125007491Y-120468728D01*
X124959501Y-120441920D01*
X124922598Y-120418999D01*
X124915966Y-120414431D01*
X124884725Y-120392400D01*
X124839786Y-120360223D01*
X124783279Y-120319459D01*
X124717336Y-120271671D01*
X124644089Y-120218418D01*
X124565668Y-120161261D01*
X124484204Y-120101761D01*
X124401830Y-120041479D01*
X124320676Y-119981976D01*
X124242874Y-119924811D01*
X124170555Y-119871546D01*
X124105850Y-119823742D01*
X124050891Y-119782959D01*
X124007808Y-119750758D01*
X123978734Y-119728700D01*
X123965799Y-119718345D01*
X123961483Y-119713872D01*
X123959444Y-119709680D01*
X123962058Y-119706273D01*
X123971118Y-119703591D01*
X123988417Y-119701575D01*
X124015746Y-119700168D01*
X124054897Y-119699311D01*
X124107665Y-119698946D01*
X124175839Y-119699013D01*
X124261214Y-119699456D01*
X124365581Y-119700214D01*
X124490732Y-119701231D01*
X124535432Y-119701608D01*
X124656527Y-119702747D01*
X124757820Y-119703944D01*
X124841394Y-119705280D01*
X124909336Y-119706839D01*
X124963731Y-119708701D01*
X125006664Y-119710950D01*
X125040221Y-119713668D01*
X125066487Y-119716937D01*
X125087548Y-119720838D01*
X125105489Y-119725455D01*
X125131902Y-119733724D01*
X125193904Y-119757333D01*
X125246705Y-119783231D01*
X125283777Y-119808381D01*
X125285207Y-119809577D01*
X125289556Y-119811748D01*
X125293158Y-119809588D01*
X125296083Y-119801272D01*
X125298401Y-119784976D01*
X125300183Y-119758875D01*
X125301499Y-119721145D01*
X125302418Y-119669960D01*
X125303010Y-119603496D01*
X125303347Y-119519929D01*
X125303497Y-119417433D01*
X125303532Y-119294184D01*
X125303532Y-118762620D01*
X125245915Y-118801393D01*
X125237025Y-118807484D01*
X125222201Y-118817940D01*
X125208554Y-118827337D01*
X125194897Y-118835733D01*
X125180043Y-118843183D01*
X125162802Y-118849743D01*
X125141987Y-118855470D01*
X125116412Y-118860421D01*
X125084887Y-118864650D01*
X125046225Y-118868215D01*
X124999239Y-118871172D01*
X124942740Y-118873576D01*
X124875541Y-118875485D01*
X124796454Y-118876954D01*
X124704292Y-118878040D01*
X124597866Y-118878798D01*
X124475989Y-118879286D01*
X124337473Y-118879558D01*
X124181131Y-118879673D01*
X124005774Y-118879685D01*
X123810214Y-118879651D01*
X123593265Y-118879627D01*
X123470645Y-118879636D01*
X123265579Y-118879673D01*
X123081248Y-118879689D01*
X122916466Y-118879628D01*
X122770048Y-118879432D01*
X122640806Y-118879046D01*
X122527554Y-118878411D01*
X122429107Y-118877472D01*
X122344276Y-118876171D01*
X122271876Y-118874452D01*
X122210721Y-118872257D01*
X122159624Y-118869531D01*
X122117399Y-118866215D01*
X122082859Y-118862254D01*
X122054818Y-118857591D01*
X122032090Y-118852169D01*
X122013488Y-118845930D01*
X121997825Y-118838819D01*
X121983916Y-118830778D01*
X121970573Y-118821750D01*
X121956611Y-118811680D01*
X121940843Y-118800509D01*
X121882999Y-118760719D01*
X121882999Y-119820602D01*
X121946098Y-119782605D01*
X121971137Y-119767923D01*
X121998718Y-119753385D01*
X122026832Y-119741289D01*
X122057683Y-119731384D01*
X122093476Y-119723422D01*
X122136415Y-119717155D01*
X122188706Y-119712334D01*
X122252551Y-119708710D01*
X122330157Y-119706035D01*
X122423726Y-119704059D01*
X122535465Y-119702534D01*
X122667577Y-119701212D01*
X122787566Y-119700303D01*
X122904195Y-119699896D01*
X122999663Y-119700149D01*
X123073688Y-119701059D01*
X123125987Y-119702623D01*
X123156281Y-119704837D01*
X123164288Y-119707696D01*
X123160990Y-119710755D01*
X123139540Y-119728910D01*
X123103021Y-119758641D01*
X123053574Y-119798277D01*
X122993339Y-119846145D01*
X122924459Y-119900573D01*
X122849075Y-119959889D01*
X122769328Y-120022421D01*
X122687360Y-120086495D01*
X122605312Y-120150441D01*
X122525326Y-120212585D01*
X122449543Y-120271255D01*
X122380105Y-120324779D01*
X122319153Y-120371486D01*
X122268828Y-120409702D01*
X122231272Y-120437755D01*
X122208627Y-120453973D01*
X122136344Y-120499281D01*
X122056595Y-120539255D01*
X121988320Y-120560786D01*
X121930976Y-120564089D01*
X121882999Y-120558800D01*
X121273399Y-120558800D01*
X121273399Y-120166163D01*
X121273412Y-119955019D01*
X121273462Y-119750896D01*
X121273562Y-119567230D01*
X121273724Y-119402925D01*
X121273961Y-119256887D01*
X121274285Y-119128022D01*
X121274707Y-119015233D01*
X121275241Y-118917428D01*
X121275899Y-118833512D01*
X121276693Y-118762389D01*
X121277636Y-118702966D01*
X121278740Y-118654148D01*
X121280016Y-118614839D01*
X121281479Y-118583947D01*
X121283139Y-118560375D01*
X121285010Y-118543030D01*
X121287104Y-118530817D01*
X121289432Y-118522641D01*
X121292008Y-118517408D01*
X121295577Y-118511412D01*
X121299110Y-118504637D01*
X121302620Y-118498438D01*
X121307050Y-118492790D01*
X121313340Y-118487669D01*
X121322433Y-118483047D01*
X121335271Y-118478901D01*
X121352794Y-118475203D01*
X121375945Y-118471929D01*
X121405666Y-118469053D01*
X121442897Y-118466549D01*
X121488581Y-118464392D01*
X121543659Y-118462556D01*
X121609073Y-118461016D01*
X121685765Y-118459746D01*
X121774676Y-118458721D01*
X121876749Y-118457915D01*
X121882999Y-118457882D01*
X121992924Y-118457302D01*
X122124143Y-118456857D01*
G36*
X121415439Y-121928247D02*
G01*
X121456582Y-121930456D01*
X121488714Y-121936022D01*
X121519254Y-121946330D01*
X121555621Y-121962768D01*
X121582860Y-121976716D01*
X121668561Y-122035251D01*
X121737749Y-122107297D01*
X121788873Y-122190969D01*
X121820382Y-122284385D01*
X121827357Y-122317482D01*
X121834226Y-122357956D01*
X121836051Y-122390917D01*
X121833079Y-122425218D01*
X121825558Y-122469716D01*
X121813134Y-122520982D01*
X121775244Y-122611482D01*
X121720968Y-122690571D01*
X121652902Y-122756388D01*
X121573643Y-122807076D01*
X121485786Y-122840776D01*
X121391927Y-122855630D01*
X121294662Y-122849780D01*
X121198352Y-122823517D01*
X121109626Y-122778498D01*
X121034551Y-122717543D01*
X120974773Y-122642732D01*
X120931941Y-122556148D01*
X120907703Y-122459873D01*
X120903708Y-122355988D01*
X120913982Y-122278354D01*
X120941185Y-122195603D01*
X120986616Y-122120510D01*
X121052434Y-122048618D01*
X121096699Y-122010070D01*
X121155093Y-121970660D01*
X121215718Y-121945470D01*
X121284997Y-121932055D01*
X121369354Y-121927968D01*
X121415439Y-121928247D01*
G37*
X121415439Y-121928247D02*
X121456582Y-121930456D01*
X121488714Y-121936022D01*
X121519254Y-121946330D01*
X121555621Y-121962768D01*
X121582860Y-121976716D01*
X121668561Y-122035251D01*
X121737749Y-122107297D01*
X121788873Y-122190969D01*
X121820382Y-122284385D01*
X121827357Y-122317482D01*
X121834226Y-122357956D01*
X121836051Y-122390917D01*
X121833079Y-122425218D01*
X121825558Y-122469716D01*
X121813134Y-122520982D01*
X121775244Y-122611482D01*
X121720968Y-122690571D01*
X121652902Y-122756388D01*
X121573643Y-122807076D01*
X121485786Y-122840776D01*
X121391927Y-122855630D01*
X121294662Y-122849780D01*
X121198352Y-122823517D01*
X121109626Y-122778498D01*
X121034551Y-122717543D01*
X120974773Y-122642732D01*
X120931941Y-122556148D01*
X120907703Y-122459873D01*
X120903708Y-122355988D01*
X120913982Y-122278354D01*
X120941185Y-122195603D01*
X120986616Y-122120510D01*
X121052434Y-122048618D01*
X121096699Y-122010070D01*
X121155093Y-121970660D01*
X121215718Y-121945470D01*
X121284997Y-121932055D01*
X121369354Y-121927968D01*
X121415439Y-121928247D01*
D11*
X135738027Y-99229655D02*
X135738027Y-98707151D01*
X137208027Y-99229655D02*
X137208027Y-98707151D01*
X138324710Y-111984029D02*
X138324710Y-112438157D01*
X139794710Y-111984029D02*
X139794710Y-112438157D01*
X146980000Y-118380000D02*
X143130000Y-118380000D01*
X146980000Y-120380000D02*
X143130000Y-120380000D01*
X146980000Y-118380000D02*
X146980000Y-120380000D01*
X126073878Y-111754951D02*
X126073878Y-112209079D01*
X124603878Y-111754951D02*
X124603878Y-112209079D01*
X119324481Y-112887524D02*
X119324481Y-113341652D01*
X120794481Y-112887524D02*
X120794481Y-113341652D01*
X141656564Y-102842696D02*
X141656564Y-104542696D01*
X141656564Y-104542696D02*
X139106564Y-104542696D01*
X141656564Y-102842696D02*
X139106564Y-102842696D01*
X129128918Y-112249813D02*
X129128918Y-111795685D01*
X127658918Y-112249813D02*
X127658918Y-111795685D01*
X127941971Y-103069973D02*
X127941971Y-99309973D01*
X127941971Y-99309973D02*
X129201971Y-99309973D01*
X134761971Y-99309973D02*
X133501971Y-99309973D01*
X134761971Y-105319973D02*
X134761971Y-99309973D01*
X122129644Y-108904538D02*
X122129644Y-108450410D01*
X123599644Y-108904538D02*
X123599644Y-108450410D01*
X139143179Y-99261858D02*
X139143179Y-98739354D01*
X140613179Y-99261858D02*
X140613179Y-98739354D01*
X121277752Y-99202543D02*
X121277752Y-98680039D01*
X122747752Y-99202543D02*
X122747752Y-98680039D01*
M02*
