M48
INCH,TZ
T1C0.0157
T2C0.0300
T3C0.0394
T4C0.0523
%
G90
G05
T1
X46758Y-43263
X47467Y-42706
X47666Y-41661
X47710Y-40405
X48522Y-45942
X49166Y-42797
X49907Y-44260
X49972Y-39963
X49990Y-43652
X50261Y-38448
X50500Y-47000
X50841Y-39381
X51500Y-43000
X51572Y-44355
X51718Y-39460
X51903Y-43944
X52611Y-39907
X52661Y-44365
X52685Y-43394
X54074Y-42602
X54082Y-44565
X54125Y-43356
X54439Y-40339
X54581Y-46966
X55160Y-45840
T2
X52044Y-46222
X53044Y-46222
T3
X46945Y-41182
X46945Y-42182
X46959Y-38554
X46959Y-39554
X56575Y-44459
X56575Y-45459
X56621Y-38576
X56621Y-39576
X56621Y-40576
X56635Y-42014
X56635Y-43014
T4
X51044Y-47722
X54044Y-47722
T0
M30
