G04 #@! TF.GenerationSoftware,KiCad,Pcbnew,6.0.4-6f826c9f35~116~ubuntu20.04.1*
G04 #@! TF.CreationDate,2022-03-23T14:40:53-04:00*
G04 #@! TF.ProjectId,ESP32 Sensing,45535033-3220-4536-956e-73696e672e6b,rev?*
G04 #@! TF.SameCoordinates,Original*
G04 #@! TF.FileFunction,Paste,Bot*
G04 #@! TF.FilePolarity,Positive*
%FSLAX46Y46*%
G04 Gerber Fmt 4.6, Leading zero omitted, Abs format (unit mm)*
G04 Created by KiCad (PCBNEW 6.0.4-6f826c9f35~116~ubuntu20.04.1) date 2022-03-23 14:40:53*
%MOMM*%
%LPD*%
G01*
G04 APERTURE LIST*
G04 Aperture macros list*
%AMRoundRect*
0 Rectangle with rounded corners*
0 $1 Rounding radius*
0 $2 $3 $4 $5 $6 $7 $8 $9 X,Y pos of 4 corners*
0 Add a 4 corners polygon primitive as box body*
4,1,4,$2,$3,$4,$5,$6,$7,$8,$9,$2,$3,0*
0 Add four circle primitives for the rounded corners*
1,1,$1+$1,$2,$3*
1,1,$1+$1,$4,$5*
1,1,$1+$1,$6,$7*
1,1,$1+$1,$8,$9*
0 Add four rect primitives between the rounded corners*
20,1,$1+$1,$2,$3,$4,$5,0*
20,1,$1+$1,$4,$5,$6,$7,0*
20,1,$1+$1,$6,$7,$8,$9,0*
20,1,$1+$1,$8,$9,$2,$3,0*%
G04 Aperture macros list end*
%ADD10RoundRect,0.250000X0.350000X0.450000X-0.350000X0.450000X-0.350000X-0.450000X0.350000X-0.450000X0*%
%ADD11RoundRect,0.250000X-0.450000X0.350000X-0.450000X-0.350000X0.450000X-0.350000X0.450000X0.350000X0*%
%ADD12RoundRect,0.250000X0.450000X-0.350000X0.450000X0.350000X-0.450000X0.350000X-0.450000X-0.350000X0*%
%ADD13RoundRect,0.150000X0.150000X-0.587500X0.150000X0.587500X-0.150000X0.587500X-0.150000X-0.587500X0*%
%ADD14RoundRect,0.250000X-0.350000X-0.450000X0.350000X-0.450000X0.350000X0.450000X-0.350000X0.450000X0*%
%ADD15RoundRect,0.250000X0.475000X-0.337500X0.475000X0.337500X-0.475000X0.337500X-0.475000X-0.337500X0*%
%ADD16R,1.100000X1.100000*%
%ADD17R,0.600000X0.450000*%
%ADD18R,1.500000X2.000000*%
%ADD19R,3.800000X2.000000*%
G04 APERTURE END LIST*
D10*
X134475745Y-120019834D03*
X132475745Y-120019834D03*
D11*
X135522187Y-111211093D03*
X135522187Y-113211093D03*
D12*
X124784101Y-104625595D03*
X124784101Y-102625595D03*
D11*
X122686912Y-102645379D03*
X122686912Y-104645379D03*
D13*
X127891067Y-108578172D03*
X125991067Y-108578172D03*
X126941067Y-106703172D03*
D11*
X139065471Y-107220000D03*
X139065471Y-109220000D03*
D14*
X135949738Y-115573251D03*
X137949738Y-115573251D03*
D15*
X125386298Y-99955049D03*
X125386298Y-97880049D03*
D13*
X126378478Y-117481927D03*
X124478478Y-117481927D03*
X125428478Y-115606927D03*
D11*
X135545928Y-107246218D03*
X135545928Y-109246218D03*
D15*
X136473027Y-100005903D03*
X136473027Y-97930903D03*
D11*
X139059710Y-111211093D03*
X139059710Y-113211093D03*
D16*
X146180000Y-119380000D03*
X143380000Y-119380000D03*
D11*
X125338878Y-110982015D03*
X125338878Y-112982015D03*
X120059481Y-112114588D03*
X120059481Y-114114588D03*
D17*
X141206564Y-103692696D03*
X139106564Y-103692696D03*
D12*
X128393918Y-113022749D03*
X128393918Y-111022749D03*
D18*
X133651971Y-104369973D03*
X131351971Y-104369973D03*
D19*
X131351971Y-98069973D03*
D18*
X129051971Y-104369973D03*
D12*
X122864644Y-109677474D03*
X122864644Y-107677474D03*
D15*
X139878179Y-100038106D03*
X139878179Y-97963106D03*
X122012752Y-99978791D03*
X122012752Y-97903791D03*
M02*
