G04 #@! TF.GenerationSoftware,KiCad,Pcbnew,6.0.4-6f826c9f35~116~ubuntu20.04.1*
G04 #@! TF.CreationDate,2022-03-23T14:40:52-04:00*
G04 #@! TF.ProjectId,ESP32 Sensing,45535033-3220-4536-956e-73696e672e6b,rev?*
G04 #@! TF.SameCoordinates,Original*
G04 #@! TF.FileFunction,Paste,Top*
G04 #@! TF.FilePolarity,Positive*
%FSLAX46Y46*%
G04 Gerber Fmt 4.6, Leading zero omitted, Abs format (unit mm)*
G04 Created by KiCad (PCBNEW 6.0.4-6f826c9f35~116~ubuntu20.04.1) date 2022-03-23 14:40:52*
%MOMM*%
%LPD*%
G01*
G04 APERTURE LIST*
G04 Aperture macros list*
%AMRoundRect*
0 Rectangle with rounded corners*
0 $1 Rounding radius*
0 $2 $3 $4 $5 $6 $7 $8 $9 X,Y pos of 4 corners*
0 Add a 4 corners polygon primitive as box body*
4,1,4,$2,$3,$4,$5,$6,$7,$8,$9,$2,$3,0*
0 Add four circle primitives for the rounded corners*
1,1,$1+$1,$2,$3*
1,1,$1+$1,$4,$5*
1,1,$1+$1,$6,$7*
1,1,$1+$1,$8,$9*
0 Add four rect primitives between the rounded corners*
20,1,$1+$1,$2,$3,$4,$5,0*
20,1,$1+$1,$4,$5,$6,$7,0*
20,1,$1+$1,$6,$7,$8,$9,0*
20,1,$1+$1,$8,$9,$2,$3,0*%
G04 Aperture macros list end*
%ADD10R,0.952500X0.558800*%
%ADD11R,2.000000X0.900000*%
%ADD12R,0.900000X2.000000*%
%ADD13R,5.000000X5.000000*%
%ADD14RoundRect,0.250000X-0.450000X0.350000X-0.450000X-0.350000X0.450000X-0.350000X0.450000X0.350000X0*%
%ADD15RoundRect,0.250000X0.450000X-0.325000X0.450000X0.325000X-0.450000X0.325000X-0.450000X-0.325000X0*%
%ADD16RoundRect,0.250000X0.475000X-0.337500X0.475000X0.337500X-0.475000X0.337500X-0.475000X-0.337500X0*%
G04 APERTURE END LIST*
D10*
X146445634Y-122526537D03*
X140082934Y-122526537D03*
X146445634Y-118818137D03*
X140082934Y-118818137D03*
D11*
X123105480Y-97442839D03*
X123105480Y-98712839D03*
X123105480Y-99982839D03*
X123105480Y-101252839D03*
X123105480Y-102522839D03*
X123105480Y-103792839D03*
X123105480Y-105062839D03*
X123105480Y-106332839D03*
X123105480Y-107602839D03*
X123105480Y-108872839D03*
X123105480Y-110142839D03*
X123105480Y-111412839D03*
X123105480Y-112682839D03*
X123105480Y-113952839D03*
D12*
X125890480Y-114952839D03*
X127160480Y-114952839D03*
X128430480Y-114952839D03*
X129700480Y-114952839D03*
X130970480Y-114952839D03*
X132240480Y-114952839D03*
X133510480Y-114952839D03*
X134780480Y-114952839D03*
X136050480Y-114952839D03*
X137320480Y-114952839D03*
D11*
X140105480Y-113952839D03*
X140105480Y-112682839D03*
X140105480Y-111412839D03*
X140105480Y-110142839D03*
X140105480Y-108872839D03*
X140105480Y-107602839D03*
X140105480Y-106332839D03*
X140105480Y-105062839D03*
X140105480Y-103792839D03*
X140105480Y-102522839D03*
X140105480Y-101252839D03*
X140105480Y-99982839D03*
X140105480Y-98712839D03*
X140105480Y-97442839D03*
D13*
X130605480Y-104942839D03*
D14*
X120315510Y-114035132D03*
X120315510Y-116035132D03*
D15*
X127241392Y-122788089D03*
X127241392Y-120738089D03*
D10*
X118698442Y-122531005D03*
X125061142Y-122531005D03*
X125061142Y-118822605D03*
X118698442Y-118822605D03*
D16*
X120298802Y-112146356D03*
X120298802Y-110071356D03*
M02*
